<svg fill="none" viewBox="0 0 887 216" xmlns="http://www.w3.org/2000/svg">
  <path d="M122.963 0 0 215.659h245.851L122.963 0ZM75.4 150.984h57.537l-28.731-50.429 18.757-32.94 66.319 116.309H56.643l18.757-32.94Z" fill="#FFFFFF"></path>
  <g fill="#FFFFFF">
    <path d="M518.719 89.69h-19.363v34.362h-25.414V9.542h47.29c27.555 0 44.311 16.214 44.311 39.613v.369c-.093 26.44-20.945 40.166-46.824 40.166Zm20.945-40.074c0-11.24-7.913-17.32-20.666-17.32h-19.642v35.008h20.2c12.754 0 20.201-7.555 20.201-17.32v-.368h-.093Zm93.798 40.074h-19.363v34.362h-25.414V9.542h47.29c27.555 0 44.311 16.214 44.311 39.613v.369c-.093 26.44-20.945 40.166-46.824 40.166Zm20.945-40.074c0-11.24-7.913-17.32-20.666-17.32h-19.642v35.008h20.2c12.754 0 20.201-7.555 20.201-17.32v-.368h-.093Zm47.092 74.343V9.542h25.379v91.571h57.545v22.939h-82.924v-.093ZM842.342 78.45v45.602h-25.294v-45.14l-44.196-69.37h29.649l27.333 46.062 27.981-45.97h28.816L842.342 78.45ZM385.715 0l-67.978 124.052h28.71l39.268-71.728 39.083 71.36.185.368h28.71L385.715 0Zm-36.442 214.705h-17.072v-44.85h17.072c14.446 0 24.39 9.63 24.39 22.379 0 12.657-10.038 22.471-24.39 22.471Zm0-37.604h-9.005v30.45h9.005c9.662 0 15.947-6.329 15.947-15.133 0-8.897-6.285-15.317-15.947-15.317Zm88.028-7.246v44.85h-7.713v-44.85h7.713Zm80.377 45.804c-14.204 0-23.487-10.092-23.487-23.333 0-12.685 9.748-23.425 23.394-23.425 7.891 0 12.719 2.222 17.454 6.111l-5.014 6.018c-3.527-2.963-6.962-4.814-12.718-4.814-8.355 0-14.668 7.222-14.668 16.018 0 9.351 6.127 16.203 15.411 16.203 4.27 0 8.169-1.389 10.954-3.426v-8.426h-11.697v-6.944h19.31v18.981c-4.456 3.796-10.862 7.037-18.939 7.037Zm84.506-45.804v44.85h-7.714v-44.85h7.714Zm80.245 44.85h-8.05v-37.512h-14.341v-7.338h36.64v7.338h-14.341v37.512h.092Zm162.74-44.85h7.978v37.681h23.842v7.169h-31.82v-44.85Zm-80.031 14.99 16.342 29.86h8.728l-25.07-45.804-25.07 45.804h8.728l16.342-29.86Z"></path>
  </g>
</svg>
